<svg xmlns="http://www.w3.org/2000/svg" xmlns:xlink="http://www.w3.org/1999/xlink" width="300" height="300" viewBox="0 0 300 300" fill="currentColor">
  <defs>
    <clipPath id="clip-iPhone_14_Pro_1">
      <rect width="300" height="300" shape-rendering="auto"/>
    </clipPath>
  </defs>
  <g id="iPhone_14_Pro_1" data-name="iPhone 14 Pro – 1" clip-path="url(#clip-iPhone_14_Pro_1)">
    <path id="heart" d="M239.444,36C209.667,36,184,52.614,170,80.136,156,52.614,130.333,36,100.556,36c-44.467.063-80.5,42.364-80.556,94.565,0,46.614,25,95.331,74.167,144.766a470.46,470.46,0,0,0,73.195,59.886,4.84,4.84,0,0,0,5.278,0,470.453,470.453,0,0,0,73.194-59.886C295,225.9,320,177.179,320,130.565c-.054-52.2-36.088-94.5-80.556-94.565ZM170,322.011C150.556,309.033,31.111,225.245,31.111,130.565c.046-45,31.11-81.468,69.444-81.522,29.319,0,53.958,18.44,64.306,48.114a5.287,5.287,0,0,0,10.278,0c10.347-29.674,34.986-48.114,64.306-48.114,38.334.054,69.4,36.521,69.444,81.522C308.889,225.13,189.444,309.033,170,322.011Z" transform="translate(-20 -36)"/>
  </g>
</svg>
