<svg xmlns="http://www.w3.org/2000/svg" xmlns:xlink="http://www.w3.org/1999/xlink" width="300" height="300" viewBox="0 0 300 300" fill="currentColor">
  <defs>
    <clipPath id="clip-iPhone_14_Pro_1">
      <rect width="300" height="300"/>
    </clipPath>
  </defs>
  <g id="iPhone_14_Pro_1" data-name="iPhone 14 Pro – 1" clip-path="url(#clip-iPhone_14_Pro_1)">
    <path id="hexagon" d="M318.64,88.972l-132-66.919a19.269,19.269,0,0,0-17.28,0l-132,66.919A16.523,16.523,0,0,0,28,103.583V236.421a16.523,16.523,0,0,0,9.36,14.612l132,66.919a19.187,19.187,0,0,0,17.28,0l132-66.919A16.523,16.523,0,0,0,328,236.421V103.583A16.523,16.523,0,0,0,318.64,88.972ZM316,236.421a5.509,5.509,0,0,1-3.12,4.861l-132,66.919a6.423,6.423,0,0,1-5.76,0l-132-66.919A5.509,5.509,0,0,1,40,236.421V103.583a5.509,5.509,0,0,1,3.12-4.861l132-66.919a6.325,6.325,0,0,1,5.76,0l132,66.919a5.509,5.509,0,0,1,3.12,4.861Z" transform="translate(-28 -20.007)"/>
  </g>
</svg>
