<svg xmlns="http://www.w3.org/2000/svg" width="32" height="32" fill="currentColor" viewBox="0 0 256 256">
    <defs>
        <pattern id="svg_hexagon" height="100%" width="100%">
          <image
            href=""
            preserveAspectRatio="none"
            width="100%"
            height="100%"
          ></image>
        </pattern>
    </defs>
    <path d="M232,80.18v95.64a16,16,0,0,1-8.32,14l-88,48.17a15.88,15.88,0,0,1-15.36,0l-88-48.17a16,16,0,0,1-8.32-14V80.18a16,16,0,0,1,8.32-14l88-48.17a15.88,15.88,0,0,1,15.36,0l88,48.17A16,16,0,0,1,232,80.18Z" fill="url(#svg_hexagon)"></path>
</svg>