<svg xmlns="http://www.w3.org/2000/svg" width="32" height="32" fill="currentColor" viewBox="0 0 256 256">
    <defs>
        <pattern id="svg_octagon" height="100%" width="100%">
          <image
            href=""
            preserveAspectRatio="none"
            width="100%"
            height="100%"
          ></image>
        </pattern>
    </defs>
    <path d="M227.31,80.23,175.77,28.69A16.13,16.13,0,0,0,164.45,24H91.55a16.13,16.13,0,0,0-11.32,4.69L28.69,80.23A16.13,16.13,0,0,0,24,91.55v72.9a16.13,16.13,0,0,0,4.69,11.32l51.54,51.54A16.13,16.13,0,0,0,91.55,232h72.9a16.13,16.13,0,0,0,11.32-4.69l51.54-51.54A16.13,16.13,0,0,0,232,164.45V91.55A16.13,16.13,0,0,0,227.31,80.23Z" fill="url(#svg_octagon)"></path>
</svg>