<svg xmlns="http://www.w3.org/2000/svg" xmlns:xlink="http://www.w3.org/1999/xlink" width="300" height="300" viewBox="0 0 300 300" fill="currentColor">
  <defs>
    <clipPath id="clip-iPhone_14_Pro_1">
      <rect width="300" height="300"/>
    </clipPath>
  </defs>
  <g id="iPhone_14_Pro_1" data-name="iPhone 14 Pro – 1" clip-path="url(#clip-iPhone_14_Pro_1)">
    <path id="octagon" d="M322.735,110.59,245.41,33.265A18,18,0,0,0,232.675,28H123.325a18,18,0,0,0-12.735,5.265L33.265,110.59A18,18,0,0,0,28,123.325v109.35a18,18,0,0,0,5.265,12.735l77.325,77.325A18,18,0,0,0,123.325,328h109.35a18,18,0,0,0,12.735-5.265l77.325-77.325A18,18,0,0,0,328,232.675V123.325a18,18,0,0,0-5.265-12.735ZM316,232.675a6,6,0,0,1-1.755,4.245L236.92,314.245A6,6,0,0,1,232.675,316H123.325a6,6,0,0,1-4.245-1.755L41.755,236.92A6,6,0,0,1,40,232.675V123.325a6,6,0,0,1,1.755-4.245L119.08,41.755A6,6,0,0,1,123.325,40h109.35a6,6,0,0,1,4.245,1.755l77.325,77.325A6,6,0,0,1,316,123.325Z" transform="translate(-28 -28)"/>
  </g>
</svg>
