<svg xmlns="http://www.w3.org/2000/svg" xmlns:xlink="http://www.w3.org/1999/xlink" width="200" height="168" viewBox="0 0 200 168" fill="currentColor">
  <defs>
    <clipPath id="clip-iPhone_14_Pro_1">
      <rect width="200" height="168"/>
    </clipPath>
  </defs>
  <g id="iPhone_14_Pro_1" data-name="iPhone 14 Pro – 1" clip-path="url(#clip-iPhone_14_Pro_1)">
    <path id="radiant-rectangle" d="M216,44H40A12,12,0,0,0,28,56V200a12,12,0,0,0,12,12H216a12,12,0,0,0,12-12V56a12,12,0,0,0-12-12Zm4,156a4,4,0,0,1-4,4H40a4,4,0,0,1-4-4V56a4,4,0,0,1,4-4H216a4,4,0,0,1,4,4Z" transform="translate(-28 -44)"/>
  </g>
</svg>
