<svg xmlns="http://www.w3.org/2000/svg" xmlns:xlink="http://www.w3.org/1999/xlink" width="300" height="300" viewBox="0 0 300 300" fill="currentColor">
  <defs>
    <clipPath id="clip-iPhone_14_Pro_1">
      <rect width="300" height="300"/>
    </clipPath>
  </defs>
  <g id="iPhone_14_Pro_1" data-name="iPhone 14 Pro – 1" clip-path="url(#clip-iPhone_14_Pro_1)">
    <path id="star" d="M319.117,133.265A16.553,16.553,0,0,0,304.7,121.38l-82.561-7.414a5.58,5.58,0,0,1-4.611-3.519L185.269,30.612h0a16.366,16.366,0,0,0-30.636,0l-32.219,79.835a5.58,5.58,0,0,1-4.611,3.519l-82.52,7.414a16.8,16.8,0,0,0-14.491,11.913A17.738,17.738,0,0,0,25.8,151.771l62.633,56.757a5.9,5.9,0,0,1,1.778,5.769L71.392,298.69a17.473,17.473,0,0,0,6.485,18,15.834,15.834,0,0,0,18.318.764l70.965-44.713a5.232,5.232,0,0,1,5.666,0l70.965,44.713a16.154,16.154,0,0,0,18.375-.852,17.653,17.653,0,0,0,6.428-17.9l-18.776-84.436A5.9,5.9,0,0,1,251.6,208.5l62.633-56.757A17.579,17.579,0,0,0,319.117,133.265Zm-12.193,9.808L244.291,199.83a17.713,17.713,0,0,0-5.305,17.02l18.776,84.407a5.884,5.884,0,0,1-2.166,6.058,5.2,5.2,0,0,1-6.041.245l-70.965-44.713a15.977,15.977,0,0,0-17.193,0L90.431,307.561a5.2,5.2,0,0,1-6.041-.245,5.884,5.884,0,0,1-2.166-6.058L101,216.822a17.713,17.713,0,0,0-5.305-17.02L33.062,143.073a5.914,5.914,0,0,1-1.639-6.245,5.6,5.6,0,0,1,4.777-3.967l82.561-7.414A16.735,16.735,0,0,0,132.649,114.9L164.9,35.055a5.474,5.474,0,0,1,10.166,0L207.309,114.9A16.735,16.735,0,0,0,221.2,125.448l82.561,7.414a5.6,5.6,0,0,1,4.777,3.967A5.916,5.916,0,0,1,306.924,143.073Z" transform="translate(-19.98 -20.008)"/>
  </g>
</svg>
