<svg width="20" height="20" viewBox="0 0 20 20" fill="none" xmlns="http://www.w3.org/2000/svg">
<path d="M9.84831 13.7464C11.9192 13.7464 13.598 12.0676 13.598 9.99675C13.598 7.92586 11.9192 6.24707 9.84831 6.24707C7.77742 6.24707 6.09863 7.92586 6.09863 9.99675C6.09863 12.0676 7.77742 13.7464 9.84831 13.7464Z" stroke="black" stroke-linecap="round" stroke-linejoin="round"/>
<path d="M14.8283 17.4988C13.1576 18.6076 11.1644 19.1267 9.16505 18.9738C7.1657 18.8208 5.27469 18.0046 3.79208 16.6545C2.30946 15.3045 1.32015 13.4979 0.981137 11.5216C0.642121 9.5453 0.972813 7.51236 1.92074 5.74537C2.86867 3.97839 4.37953 2.57858 6.21361 1.76804C8.04768 0.957507 10.0999 0.782678 12.0447 1.2713C13.9894 1.75991 15.7153 2.88399 16.9484 4.46517C18.1816 6.04634 18.8514 7.99405 18.8516 9.99924C18.8516 12.0701 18.1016 13.7489 16.2268 13.7489C14.3519 13.7489 13.602 12.0701 13.602 9.99924V6.24956" stroke="black" stroke-linecap="round" stroke-linejoin="round"/>
</svg>
