<svg width="29" height="26" viewBox="0 0 29 26" fill="none" xmlns="http://www.w3.org/2000/svg">
<path d="M10 26C11.1046 26 12 25.1046 12 24C12 22.8954 11.1046 22 10 22C8.89543 22 8 22.8954 8 24C8 25.1046 8.89543 26 10 26Z" fill="black"/>
<path d="M23 26C24.1046 26 25 25.1046 25 24C25 22.8954 24.1046 22 23 22C21.8954 22 21 22.8954 21 24C21 25.1046 21.8954 26 23 26Z" fill="black"/>
<path d="M1 1H3.10284C3.32015 1 3.53155 1.07079 3.70504 1.20165C3.87853 1.33251 4.00467 1.51633 4.06436 1.72528L5.28571 6M5.28571 6L8.58556 17.5494C8.70495 17.9673 8.95723 18.335 9.30421 18.5967C9.65119 18.8584 10.074 19 10.5086 19H22.4914C22.926 19 23.3488 18.8584 23.6958 18.5967C24.0428 18.335 24.295 17.9673 24.4144 17.5494L27.7143 6H5.28571Z" stroke="black" stroke-width="2" stroke-linecap="round" stroke-linejoin="round"/>
</svg>
