<svg width="21" height="18" viewBox="0 0 21 18" fill="none" xmlns="http://www.w3.org/2000/svg">
<path d="M4.13672 1.32031L16.6226 16.6348" stroke="currentColor" stroke-width="2" stroke-linecap="round" stroke-linejoin="round"/>
<path d="M12.4798 11.5532C11.8672 12.1741 11.0586 12.4982 10.2317 12.4542C9.40479 12.4103 8.62742 12.0019 8.07057 11.3189C7.51371 10.6359 7.22298 9.73418 7.26232 8.81217C7.30166 7.89015 7.66785 7.02332 8.28034 6.40234" stroke="currentColor" stroke-width="2" stroke-linecap="round" stroke-linejoin="round"/>
<path d="M6.16535 3.80762C2.98385 5.60408 1.63965 8.97683 1.63965 8.97683C1.63965 8.97683 4.13683 15.2412 10.3798 15.2412C11.8425 15.2542 13.2869 14.8785 14.5936 14.1453" stroke="currentColor" stroke-width="2" stroke-linecap="round" stroke-linejoin="round"/>
<path d="M16.6701 12.5539C18.3715 10.8547 19.1197 8.97764 19.1197 8.97764C19.1197 8.97764 16.6225 2.71193 10.3796 2.71193C9.8389 2.71094 9.29906 2.75996 8.76562 2.85847" stroke="currentColor" stroke-width="2" stroke-linecap="round" stroke-linejoin="round"/>
<path d="M10.9668 5.55859C11.6302 5.70065 12.2345 6.07873 12.6889 6.63612C13.1434 7.19352 13.4235 7.90018 13.4872 8.6501" stroke="currentColor" stroke-width="2" stroke-linecap="round" stroke-linejoin="round"/>
</svg>
