<svg width="28" height="26" viewBox="0 0 28 26" fill="none" xmlns="http://www.w3.org/2000/svg">
<path d="M14.7507 24.6772L24.912 13.5148C27.4087 10.7721 27.777 6.25996 25.4143 3.37759C24.8225 2.65351 24.1025 2.06949 23.2985 1.66116C22.4944 1.25283 21.623 1.02875 20.7375 1.00259C19.852 0.97643 18.9709 1.14874 18.148 1.50901C17.3251 1.86928 16.5776 2.40995 15.9512 3.09804L14.0414 5.19607L12.3924 3.38463C9.89568 0.641918 5.7882 0.237274 3.16434 2.83281C2.50521 3.48295 1.97357 4.27379 1.60186 5.1571C1.23015 6.0404 1.02617 6.99765 1.00236 7.97041C0.978544 8.94318 1.1354 9.91108 1.46336 10.8151C1.79132 11.719 2.2835 12.5401 2.90987 13.2282L13.332 24.6772C13.5201 24.8839 13.7753 25 14.0414 25C14.3074 25 14.5626 24.8839 14.7507 24.6772V24.6772Z" stroke="black" stroke-width="2" stroke-linecap="round" stroke-linejoin="round"/>
</svg>
