<svg width="17" height="21" viewBox="0 0 17 21" fill="none" xmlns="http://www.w3.org/2000/svg">
<path d="M15.8506 8.5C15.8506 15.25 8.35059 20.5 8.35059 20.5C8.35059 20.5 0.850586 15.25 0.850586 8.5C0.850586 6.51088 1.64076 4.60322 3.04729 3.1967C4.45381 1.79018 6.36146 1 8.35059 1C10.3397 1 12.2474 1.79018 13.6539 3.1967C15.0604 4.60322 15.8506 6.51088 15.8506 8.5Z" fill="black" stroke="black" stroke-linecap="round" stroke-linejoin="round"/>
<path d="M8.35352 11.502C10.0104 11.502 11.3535 10.1588 11.3535 8.50195C11.3535 6.8451 10.0104 5.50195 8.35352 5.50195C6.69666 5.50195 5.35352 6.8451 5.35352 8.50195C5.35352 10.1588 6.69666 11.502 8.35352 11.502Z" fill="white" stroke="white" stroke-linecap="round" stroke-linejoin="round"/>
</svg>
