<svg width="21" height="25" viewBox="0 0 21 25" fill="none" xmlns="http://www.w3.org/2000/svg">
<path d="M6.19075 11.6533C6.67886 13.7567 7.85877 15.6354 9.54148 16.9886C9.6649 17.0862 9.81163 17.1501 9.96722 17.1738C10.1228 17.1975 10.2819 17.1804 10.4288 17.1239L13.6472 15.908C13.7895 15.8543 13.943 15.8369 14.0938 15.8574C14.2446 15.8779 14.3878 15.9357 14.5106 16.0256L19.2121 19.4663C19.3719 19.5825 19.4897 19.7476 19.5476 19.9365C19.6055 20.1255 19.6005 20.3282 19.5332 20.514C19.0704 21.7664 18.1669 22.8071 16.992 23.4414C15.817 24.0756 14.4512 24.2598 13.1502 23.9595C9.13202 23.0319 5.64694 20.546 3.46162 17.0488C1.27631 13.5515 0.569769 9.32941 1.49744 5.31124C1.79786 4.01028 2.56218 2.86344 3.64728 2.08544C4.73238 1.30744 6.06386 0.951637 7.39241 1.08465C7.58893 1.10565 7.7733 1.18995 7.91775 1.32485C8.0622 1.45974 8.15889 1.63793 8.19326 1.83256L9.22572 7.57151C9.25242 7.71995 9.242 7.87269 9.19539 8.01613C9.14878 8.15958 9.06741 8.28926 8.95855 8.39365L6.45147 10.7976C6.33771 10.9055 6.25388 11.0411 6.20819 11.191C6.16249 11.341 6.15648 11.5003 6.19075 11.6533Z" fill="black" stroke="black" stroke-linecap="round" stroke-linejoin="round"/>
</svg>
