<svg width="58" height="59" viewBox="0 0 58 59" fill="none" xmlns="http://www.w3.org/2000/svg">
<path d="M1.16928 44.5105L8.4886 3.00051C8.6001 2.36821 8.9582 1.80609 9.48415 1.43782C10.0101 1.06955 10.6608 0.925297 11.2931 1.03679L27.9818 3.97947C28.6141 4.09096 29.1763 4.44907 29.5445 4.97501C29.9128 5.50095 30.0571 6.15165 29.9456 6.78396L22.5889 48.5058C22.0935 51.315 20.5162 53.8178 18.1956 55.4766C15.8751 57.1354 12.9965 57.8179 10.1782 57.3775C4.14335 56.432 0.108544 50.5262 1.16928 44.5105Z" stroke="black" stroke-width="2" stroke-linecap="round" stroke-linejoin="round"/>
<path d="M25.8758 29.9176L47.9553 21.8813C48.5587 21.6618 49.2245 21.6908 49.8064 21.9622C50.3883 22.2335 50.8386 22.7249 51.0582 23.3282L56.8541 39.2525C56.9629 39.5512 57.0117 39.8684 56.9978 40.1861C56.984 40.5037 56.9077 40.8154 56.7733 41.1036C56.639 41.3917 56.4492 41.6505 56.2148 41.8653C55.9804 42.0801 55.706 42.2466 55.4072 42.3553L15.5967 56.8452" stroke="black" stroke-width="2" stroke-linecap="round" stroke-linejoin="round"/>
<path d="M56.6565 41.3242V55.083C56.6565 55.7251 56.4014 56.3408 55.9474 56.7948C55.4934 57.2488 54.8777 57.5039 54.2356 57.5039H11.8701" stroke="black" stroke-width="2" stroke-linecap="round" stroke-linejoin="round"/>
<path d="M11.855 50.2578C13.8605 50.2578 15.4863 48.632 15.4863 46.6264C15.4863 44.6209 13.8605 42.9951 11.855 42.9951C9.84943 42.9951 8.22363 44.6209 8.22363 46.6264C8.22363 48.632 9.84943 50.2578 11.855 50.2578Z" fill="black"/>
</svg>
