<svg width="58" height="58" viewBox="0 0 58 58" fill="none" xmlns="http://www.w3.org/2000/svg">
<path d="M45.6199 2.48049L33.381 14.7195L35.0309 22.9691L43.2805 24.619L55.5195 12.38L55.5207 12.3795C57.0356 15.9555 57.3979 19.9148 56.5572 23.7063C55.7165 27.4978 53.7146 30.9328 50.8302 33.5333C47.9458 36.1338 44.3224 37.7703 40.4644 38.215C36.6063 38.6597 32.7056 37.8905 29.3052 36.0145L29.3056 36.0139L12.947 54.9525C11.634 56.2641 9.85389 57.0005 7.99806 57C6.14222 56.9995 4.36254 56.262 3.05027 54.9497C1.73799 53.6375 1.00053 51.8578 1 50.0019C0.999472 48.1461 1.73592 46.366 3.04745 45.053L21.9859 28.6946L21.9855 28.6948C20.1095 25.2944 19.3403 21.3937 19.785 17.5357C20.2297 13.6776 21.8662 10.0542 24.4667 7.1698C27.0672 4.2854 30.5022 2.28351 34.2937 1.44281C38.0852 0.602105 42.0445 0.964412 45.6205 2.4793L45.6199 2.48049Z" stroke="black" stroke-width="2" stroke-linecap="round" stroke-linejoin="round"/>
</svg>
